# Made in Blockbench 4.12.5
mtllib Bench.mtl

o plane
v 0.4375 0.625 1.375
v 0.4375 0.625 -1.375
v -0.4375 0.625 1.375
v -0.4375 0.625 -1.375
v 0.43259125 0.25002125 1.375
v 0.43259125 0.25002125 -1.375
v 0.44240875 1.37497875 1.375
v 0.44240875 1.37497875 -1.375
v -0.438590625 0.37500500000000003 1.375
v -0.438590625 0.37500500000000003 -1.375
v -0.436409375 0.624995 1.375
v -0.436409375 0.624995 -1.375
v 0.4375 1.375 -1.375
v 0.4375 0 -1.375
v -0.4375 1.375 -1.375
v -0.4375 0 -1.375
v 0.4375 1.375 1.375
v 0.4375 0 1.375
v -0.4375 1.375 1.375
v -0.4375 0 1.375
v 0.4375 0.625 1.375
v 0.4375 0.625 -1.375
v -0.4375 0.625 -1.375
v -0.4375 0.625 1.375
v 0.4375 0.625 1.375
v 0.4375 0.625 -1.375
v -0.4375 0.625 -1.375
v -0.4375 0.625 1.375
vt 0.21875 0.015625
vt 0.21875 0.703125
vt 0 0.703125
vt 0 0.015625
vt 0 0.71875
vt 0.6875 0.71875
vt 0.6875 1
vt 0 1
vt 0.234375 0.28125
vt 0.921875 0.28125
vt 0.921875 0.34375
vt 0.234375 0.34375
vt 0.234375 0.703125
vt 0.234375 0.359375
vt 0.453125 0.359375
vt 0.453125 0.703125
vt 0.46875 0.703125
vt 0.46875 0.359375
vt 0.6875 0.359375
vt 0.6875 0.703125
vt 0.21875 0.015625
vt 0.21875 0.703125
vt 0 0.703125
vt 0 0.015625
vt 0.21875 0.015625
vt 0.21875 0.703125
vt 0 0.703125
vt 0 0.015625
vn 0 1 0
vn 0.9999619219423438 -0.008726664046125293 0
vn 0.9999619363156688 -0.008725016895030106 0
vn 0 0 -1
vn 0 0 -1
vn 0 1 0
vn 0 1 0
usemtl m_0c7c82ac-1b13-7e97-6e71-a9ef5b00c3a2
f 1/1/1 2/2/1 4/3/1 3/4/1
f 5/5/2 6/6/2 8/7/2 7/8/2
f 9/9/3 10/10/3 12/11/3 11/12/3
f 13/13/4 14/14/4 16/15/4 15/16/4
f 17/17/5 18/18/5 20/19/5 19/20/5
f 21/21/6 22/22/6 23/23/6 24/24/6
f 25/25/7 26/26/7 27/27/7 28/28/7